<svg id="Layer_1_New" data-name="Layer 1 New" xmlns="http://www.w3.org/2000/svg" viewBox="0 0 501.845 487.273"><defs><style>.cls-1{fill:#f94144;}.cls-2{fill:#f3722c;}.cls-3{fill:#f8961e;}</style></defs><title>y5c4l3-cloud</title><path class="cls-1" d="M83.555,267.4l91.591-88.877L183,202.7,140.23,241.964c-11.256,9.968-21.882,19.352-33.195,29.827l.353,1.084c15.309,1.825,29.676,3.956,44.563,5.161l57.684,6.628L217.25,308.1,90.911,290.034l-68.943,22.4L14.612,289.8Z" transform="translate(-14.612 -9.642)"/><path class="cls-1" d="M183.975,68.288l112.83,59.643-20.569,14.944-50.562-28.544c-12.959-7.626-25.167-14.832-38.626-22.353l-.922.669c3,15.124,5.408,29.447,8.862,43.978l11.523,56.908-19.937,14.485L164.715,82.279,122.106,23.633,141.365,9.642Z" transform="translate(-14.612 -9.642)"/><path class="cls-1" d="M404.367,102.264,382.508,228,361.94,213.06l11.523-56.909c3.247-14.68,6.328-28.518,9.323-43.642l-.922-.67c-13.459,7.522-26.335,14.243-39.087,22.018L292.215,162.4l-19.938-14.485,112.83-59.644,42.61-58.645,19.259,13.991Z" transform="translate(-14.612 -9.642)"/><path class="cls-1" d="M440.158,322.369l-126.34,18.067,7.856-24.179,57.685-6.628c14.965-1.447,29.079-2.793,44.387-4.618l.352-1.084c-11.313-10.476-21.684-20.644-33.018-30.37L348.307,234.29l7.615-23.437,91.592,88.876,68.943,22.4L509.1,344.77Z" transform="translate(-14.612 -9.642)"/><path class="cls-1" d="M241.886,424.425,185.662,309.852h25.423l24.129,52.812c6,13.786,11.642,26.792,18.109,40.788h1.14c6.467-14,12.933-27,18.68-40.788l24.128-52.812h24.643L265.69,424.425v72.49h-23.8Z" transform="translate(-14.612 -9.642)"/><path class="cls-2" d="M246.912,217.032c-1.941-3.883-3.884-11.649-3.884-21.6,0-23.057,14.563-40.411,41.382-40.411,25.606,0,42.959,17.354,42.959,42.716,0,10.194-2.184,16.625-3.64,19.417l-8.617-2.549a38.445,38.445,0,0,0,3.4-16.5c0-19.174-12.257-31.916-33.737-31.916-20.023,0-32.886,11.528-32.886,31.43,0,6.432,1.335,12.985,3.4,17.233Z" transform="translate(-14.612 -9.642)"/><path class="cls-2" d="M296.871,224.092c3.883-1.942,11.65-3.884,21.6-3.884,23.056,0,40.411,14.563,40.411,41.382,0,25.605-17.355,42.959-42.717,42.959-10.193,0-16.625-2.185-19.417-3.641l2.549-8.616a38.465,38.465,0,0,0,16.5,3.4c19.174,0,31.916-12.256,31.916-33.736,0-20.023-11.529-32.887-31.431-32.887-6.432,0-12.984,1.335-17.232,3.4Z" transform="translate(-14.612 -9.642)"/><path class="cls-2" d="M289.812,274.049c1.941,3.883,3.883,11.649,3.883,21.6,0,23.057-14.562,40.412-41.382,40.412-25.6,0-42.959-17.355-42.959-42.717,0-10.194,2.185-16.625,3.641-19.417l8.616,2.549a38.461,38.461,0,0,0-3.4,16.5c0,19.174,12.257,31.917,33.736,31.917,20.024,0,32.887-11.529,32.887-31.431,0-6.432-1.335-12.985-3.4-17.233Z" transform="translate(-14.612 -9.642)"/><path class="cls-2" d="M239.855,266.99c-3.882,1.942-11.649,3.884-21.6,3.884-23.057,0-40.411-14.562-40.411-41.382,0-25.6,17.354-42.959,42.717-42.959,10.193,0,16.625,2.185,19.417,3.641l-2.549,8.616a38.465,38.465,0,0,0-16.5-3.4c-19.174,0-31.916,12.256-31.916,33.736,0,20.023,11.528,32.887,31.43,32.887,6.432,0,12.985-1.335,17.233-3.4Z" transform="translate(-14.612 -9.642)"/><path class="cls-3" d="M257.229,245.273h5.443v37.6h18.017v4.566h-23.46Z" transform="translate(-14.612 -9.642)"/><path class="cls-3" d="M257.5,240.005l-2.722,4.713-32.56-18.8-9.01,15.6-3.955-2.284,11.731-20.316Z" transform="translate(-14.612 -9.642)"/><path class="cls-3" d="M261.926,242.868l-2.722-4.713,32.562-18.8-9.009-15.6,3.955-2.283,11.729,20.316Z" transform="translate(-14.612 -9.642)"/><path class="cls-3" d="M257.23,245.274h5.443v37.6H280.69v4.566H257.23Z" transform="translate(-14.612 -9.642)"/></svg>