<?xml version="1.0" encoding="UTF-8"?>
<svg xmlns="http://www.w3.org/2000/svg" xmlns:xlink="http://www.w3.org/1999/xlink" width="128" height="128" viewBox="0 0 128 128">
<defs>
<clipPath id="clip-0">
<path clip-rule="nonzero" d="M 22 65 L 29 65 L 29 99.40625 L 22 99.40625 Z M 22 65 "/>
</clipPath>
<clipPath id="clip-1">
<path clip-rule="nonzero" d="M 38 65 L 45 65 L 45 99.40625 L 38 99.40625 Z M 38 65 "/>
</clipPath>
<clipPath id="clip-2">
<path clip-rule="nonzero" d="M 83 65 L 90 65 L 90 99.40625 L 83 99.40625 Z M 83 65 "/>
</clipPath>
<clipPath id="clip-3">
<path clip-rule="nonzero" d="M 99.296875 65 L 106 65 L 106 99.40625 L 99.296875 99.40625 Z M 99.296875 65 "/>
</clipPath>
</defs>
<path fill-rule="nonzero" fill="rgb(34.117648%, 45.882353%, 56.470591%)" fill-opacity="1" d="M 22.152344 65.480469 L 23.453125 65.480469 L 23.453125 32.824219 L 28.421875 32.824219 L 28.421875 31.519531 L 22.152344 31.519531 Z M 22.152344 65.480469 "/>
<g clip-path="url(#clip-0)">
<path fill-rule="nonzero" fill="rgb(34.117648%, 45.882353%, 56.470591%)" fill-opacity="1" d="M 22.152344 99.398438 L 28.421875 99.398438 L 28.421875 98.097656 L 23.453125 98.097656 L 23.453125 65.441406 L 22.152344 65.441406 Z M 22.152344 99.398438 "/>
</g>
<path fill-rule="nonzero" fill="rgb(97.647059%, 25.490198%, 26.666668%)" fill-opacity="1" d="M 37.742188 40.160156 C 37.832031 39.894531 37.832031 39.867188 37.832031 39.71875 C 37.832031 39.390625 37.566406 39.214844 37.269531 39.214844 C 37.09375 39.214844 36.796875 39.332031 36.621094 39.597656 C 36.589844 39.71875 36.414062 40.28125 36.355469 40.632812 C 36.207031 41.109375 36.085938 41.640625 35.96875 42.144531 L 35.109375 45.542969 C 35.050781 45.8125 34.222656 47.140625 32.980469 47.140625 C 32.035156 47.140625 31.828125 46.3125 31.828125 45.605469 C 31.828125 44.746094 32.152344 43.5625 32.773438 41.90625 C 33.070312 41.136719 33.160156 40.929688 33.160156 40.546875 C 33.160156 39.71875 32.566406 39.007812 31.621094 39.007812 C 29.816406 39.007812 29.136719 41.757812 29.136719 41.90625 C 29.136719 42.113281 29.3125 42.113281 29.34375 42.113281 C 29.550781 42.113281 29.550781 42.054688 29.640625 41.757812 C 30.171875 39.984375 30.910156 39.421875 31.5625 39.421875 C 31.710938 39.421875 32.035156 39.421875 32.035156 40.011719 C 32.035156 40.488281 31.828125 40.988281 31.710938 41.34375 C 30.941406 43.355469 30.613281 44.421875 30.613281 45.308594 C 30.613281 46.996094 31.796875 47.554688 32.921875 47.554688 C 33.660156 47.554688 34.28125 47.230469 34.816406 46.699219 C 34.578125 47.675781 34.34375 48.621094 33.601562 49.625 C 33.101562 50.246094 32.390625 50.808594 31.53125 50.808594 C 31.265625 50.808594 30.40625 50.75 30.082031 50.011719 C 30.378906 50.011719 30.644531 50.011719 30.882812 49.773438 C 31.089844 49.625 31.265625 49.359375 31.265625 49.003906 C 31.265625 48.414062 30.761719 48.355469 30.585938 48.355469 C 30.140625 48.355469 29.519531 48.652344 29.519531 49.566406 C 29.519531 50.515625 30.347656 51.222656 31.53125 51.222656 C 33.453125 51.222656 35.40625 49.507812 35.941406 47.378906 Z M 37.742188 40.160156 "/>
<path fill-rule="nonzero" fill="rgb(95.294118%, 44.705883%, 17.254902%)" fill-opacity="1" d="M 36.9375 62.824219 C 36.613281 62.824219 36.375 62.824219 36.109375 63.058594 C 35.785156 63.355469 35.753906 63.679688 35.753906 63.800781 C 35.753906 64.273438 36.109375 64.480469 36.464844 64.480469 C 36.996094 64.480469 37.5 64.007812 37.5 63.265625 C 37.5 62.351562 36.613281 61.640625 35.28125 61.640625 C 32.738281 61.640625 30.222656 64.332031 30.222656 66.992188 C 30.222656 68.710938 31.316406 70.1875 33.300781 70.1875 C 35.992188 70.1875 37.558594 68.175781 37.558594 67.96875 C 37.558594 67.851562 37.46875 67.703125 37.351562 67.703125 C 37.234375 67.703125 37.203125 67.761719 37.085938 67.910156 C 35.605469 69.773438 33.535156 69.773438 33.328125 69.773438 C 32.144531 69.773438 31.613281 68.855469 31.613281 67.703125 C 31.613281 66.933594 32 65.101562 32.648438 63.945312 C 33.242188 62.851562 34.277344 62.054688 35.3125 62.054688 C 35.933594 62.054688 36.671875 62.289062 36.9375 62.824219 Z M 36.9375 62.824219 "/>
<path fill-rule="nonzero" fill="rgb(97.254902%, 58.823532%, 11.764706%)" fill-opacity="1" d="M 35.417969 79.714844 C 35.417969 79.714844 35.417969 79.507812 35.148438 79.507812 C 34.734375 79.507812 33.34375 79.65625 32.84375 79.714844 C 32.695312 79.714844 32.488281 79.746094 32.488281 80.101562 C 32.488281 80.308594 32.695312 80.308594 32.960938 80.308594 C 33.878906 80.308594 33.90625 80.484375 33.90625 80.632812 L 33.847656 81.019531 L 31.453125 90.453125 C 31.394531 90.660156 31.363281 90.78125 31.363281 91.074219 C 31.363281 92.167969 32.191406 92.820312 33.078125 92.820312 C 33.699219 92.820312 34.171875 92.4375 34.5 91.753906 C 34.824219 91.046875 35.0625 89.953125 35.0625 89.921875 C 35.0625 89.714844 34.882812 89.714844 34.824219 89.714844 C 34.648438 89.714844 34.617188 89.804688 34.585938 90.070312 C 34.261719 91.28125 33.90625 92.40625 33.136719 92.40625 C 32.578125 92.40625 32.578125 91.816406 32.578125 91.546875 C 32.578125 91.074219 32.605469 90.988281 32.695312 90.632812 Z M 35.417969 79.714844 "/>
<path fill-rule="nonzero" fill="rgb(34.117648%, 45.882353%, 56.470591%)" fill-opacity="1" d="M 43.613281 65.480469 L 44.917969 65.480469 L 44.917969 31.519531 L 38.617188 31.519531 L 38.617188 32.824219 L 43.613281 32.824219 Z M 43.613281 65.480469 "/>
<g clip-path="url(#clip-1)">
<path fill-rule="nonzero" fill="rgb(34.117648%, 45.882353%, 56.470591%)" fill-opacity="1" d="M 43.613281 98.097656 L 38.617188 98.097656 L 38.617188 99.398438 L 44.917969 99.398438 L 44.917969 65.441406 L 43.613281 65.441406 Z M 43.613281 98.097656 "/>
</g>
<path fill-rule="nonzero" fill="rgb(34.117648%, 45.882353%, 56.470591%)" fill-opacity="1" d="M 57.28125 27.648438 L 61.304688 27.648438 C 61.511719 27.648438 61.835938 27.648438 61.835938 27.355469 C 61.835938 27 61.542969 27 61.304688 27 L 52.609375 27 C 52.402344 27 52.074219 27 52.074219 27.324219 C 52.074219 27.648438 52.402344 27.648438 52.609375 27.648438 L 56.632812 27.648438 L 56.632812 35.664062 C 56.632812 35.871094 56.632812 36.167969 56.957031 36.167969 C 57.28125 36.167969 57.28125 35.84375 57.28125 35.664062 Z M 57.28125 27.648438 "/>
<path fill-rule="nonzero" fill="rgb(34.117648%, 45.882353%, 56.470591%)" fill-opacity="1" d="M 71.601562 65.4375 C 71.601562 64.90625 71.15625 64.460938 70.625 64.460938 C 70.0625 64.460938 69.621094 64.90625 69.621094 65.4375 C 69.621094 66 70.0625 66.445312 70.625 66.445312 C 71.15625 66.445312 71.601562 66 71.601562 65.4375 Z M 71.601562 65.4375 "/>
<path fill-rule="nonzero" fill="rgb(34.117648%, 45.882353%, 56.470591%)" fill-opacity="1" d="M 83.574219 65.480469 L 84.875 65.480469 L 84.875 32.824219 L 89.847656 32.824219 L 89.847656 31.519531 L 83.574219 31.519531 Z M 83.574219 65.480469 "/>
<g clip-path="url(#clip-2)">
<path fill-rule="nonzero" fill="rgb(34.117648%, 45.882353%, 56.470591%)" fill-opacity="1" d="M 83.574219 99.398438 L 89.847656 99.398438 L 89.847656 98.097656 L 84.875 98.097656 L 84.875 65.441406 L 83.574219 65.441406 Z M 83.574219 99.398438 "/>
</g>
<path fill-rule="nonzero" fill="rgb(97.647059%, 78.039217%, 30.980393%)" fill-opacity="1" d="M 98.457031 43.5625 C 98.457031 41.316406 96.917969 39.421875 94.878906 39.421875 C 93.988281 39.421875 93.160156 39.71875 92.480469 40.398438 L 92.480469 36.699219 C 92.867188 36.820312 93.488281 36.9375 94.078125 36.9375 C 96.414062 36.9375 97.746094 35.222656 97.746094 34.984375 C 97.746094 34.867188 97.6875 34.777344 97.539062 34.777344 C 97.539062 34.777344 97.480469 34.777344 97.390625 34.835938 C 97.007812 35.015625 96.089844 35.398438 94.816406 35.398438 C 94.078125 35.398438 93.191406 35.25 92.304688 34.867188 C 92.15625 34.808594 92.125 34.808594 92.097656 34.808594 C 91.890625 34.808594 91.890625 34.957031 91.890625 35.25 L 91.890625 40.839844 C 91.890625 41.167969 91.890625 41.316406 92.15625 41.316406 C 92.304688 41.316406 92.332031 41.285156 92.421875 41.167969 C 92.628906 40.871094 93.308594 39.835938 94.847656 39.835938 C 95.824219 39.835938 96.296875 40.695312 96.445312 41.046875 C 96.742188 41.757812 96.800781 42.46875 96.800781 43.414062 C 96.800781 44.09375 96.800781 45.21875 96.328125 46.019531 C 95.882812 46.757812 95.171875 47.230469 94.316406 47.230469 C 92.953125 47.230469 91.859375 46.226562 91.535156 45.128906 C 91.59375 45.128906 91.652344 45.160156 91.859375 45.160156 C 92.480469 45.160156 92.804688 44.6875 92.804688 44.242188 C 92.804688 43.769531 92.480469 43.296875 91.859375 43.296875 C 91.59375 43.296875 90.941406 43.445312 90.941406 44.300781 C 90.941406 45.929688 92.246094 47.761719 94.34375 47.761719 C 96.535156 47.761719 98.457031 45.957031 98.457031 43.5625 Z M 98.457031 43.5625 "/>
<path fill-rule="nonzero" fill="rgb(56.470591%, 74.509805%, 42.745098%)" fill-opacity="1" d="M 95.558594 66.875 L 95.558594 68.503906 C 95.558594 69.183594 95.5 69.390625 94.109375 69.390625 L 93.722656 69.390625 L 93.722656 69.980469 C 94.492188 69.921875 95.46875 69.921875 96.265625 69.921875 C 97.066406 69.921875 98.042969 69.921875 98.839844 69.980469 L 98.839844 69.390625 L 98.425781 69.390625 C 97.035156 69.390625 97.007812 69.183594 97.007812 68.503906 L 97.007812 66.875 L 98.871094 66.875 L 98.871094 66.285156 L 97.007812 66.285156 L 97.007812 57.707031 C 97.007812 57.320312 97.007812 57.203125 96.679688 57.203125 C 96.535156 57.203125 96.472656 57.203125 96.328125 57.4375 L 90.527344 66.285156 L 90.527344 66.875 Z M 95.644531 66.285156 L 91.0625 66.285156 L 95.644531 59.242188 Z M 95.644531 66.285156 "/>
<path fill-rule="nonzero" fill="rgb(26.274511%, 66.666669%, 54.509807%)" fill-opacity="1" d="M 95.46875 85.957031 C 97.007812 85.457031 98.101562 84.152344 98.101562 82.644531 C 98.101562 81.105469 96.445312 80.042969 94.640625 80.042969 C 92.746094 80.042969 91.296875 81.167969 91.296875 82.617188 C 91.296875 83.238281 91.710938 83.589844 92.273438 83.589844 C 92.835938 83.589844 93.21875 83.175781 93.21875 82.617188 C 93.21875 81.699219 92.332031 81.699219 92.066406 81.699219 C 92.628906 80.753906 93.871094 80.515625 94.550781 80.515625 C 95.351562 80.515625 96.386719 80.929688 96.386719 82.617188 C 96.386719 82.851562 96.328125 83.945312 95.851562 84.773438 C 95.292969 85.691406 94.640625 85.75 94.167969 85.75 C 94.019531 85.78125 93.574219 85.808594 93.425781 85.808594 C 93.28125 85.839844 93.160156 85.871094 93.160156 86.046875 C 93.160156 86.253906 93.28125 86.253906 93.605469 86.253906 L 94.433594 86.253906 C 95.972656 86.253906 96.679688 87.527344 96.679688 89.390625 C 96.679688 91.960938 95.378906 92.496094 94.550781 92.496094 C 93.722656 92.496094 92.304688 92.167969 91.652344 91.074219 C 92.304688 91.164062 92.894531 90.75 92.894531 90.039062 C 92.894531 89.359375 92.390625 88.976562 91.859375 88.976562 C 91.386719 88.976562 90.796875 89.242188 90.796875 90.070312 C 90.796875 91.785156 92.539062 93.027344 94.609375 93.027344 C 96.917969 93.027344 98.632812 91.3125 98.632812 89.390625 C 98.632812 87.851562 97.421875 86.371094 95.46875 85.957031 Z M 95.46875 85.957031 "/>
<path fill-rule="nonzero" fill="rgb(34.117648%, 45.882353%, 56.470591%)" fill-opacity="1" d="M 104.546875 65.480469 L 105.847656 65.480469 L 105.847656 31.519531 L 99.546875 31.519531 L 99.546875 32.824219 L 104.546875 32.824219 Z M 104.546875 65.480469 "/>
<g clip-path="url(#clip-3)">
<path fill-rule="nonzero" fill="rgb(34.117648%, 45.882353%, 56.470591%)" fill-opacity="1" d="M 104.546875 98.097656 L 99.546875 98.097656 L 99.546875 99.398438 L 105.847656 99.398438 L 105.847656 65.441406 L 104.546875 65.441406 Z M 104.546875 98.097656 "/>
</g>
</svg>
